# xmcd
# 
# Track frame offsets:
#     150
#     9602
#     23875
#     38632
#     47787
#     59870
#     76892
#     96857
#     113970
#     139905
#     167765
# 
# Disc length: 4440
# 
# Revision: 0
# Processed by: cddbd v1.5.2PL0 Copyright (c) Steve Scherf et al.
# Submitted via: fre:ac v1.0.31
# 
DISCID=9211560b
DTITLE=Art Brut - Bang Bang Rock and Roll CD2
DYEAR=2006
DGENRE=Rock
TTITLE0=These Animal Menswe&r
TTITLE1=It's About Time
TTITLE2=Maternity Ward
TTITLE3=Every Other Weekend
TTITLE4=Home Altars Of Mexico
TTITLE5=Really Bad Week End
TTITLE6=Rusted Guns of Milan (Live)
TTITLE7=Modern Art (Live)
TTITLE8=Moving to LA (Live)
TTITLE9=My Little Brother (Live)
TTITLE10=Data track
EXTD=
EXTT0=
EXTT1=
EXTT2=
EXTT3=
EXTT4=
EXTT5=
EXTT6=
EXTT7=
EXTT8=
EXTT9=
EXTT10=
PLAYORDER=
